<?xml version="1.0" encoding="UTF-8" standalone="no"?>
<!-- Generator: Adobe Illustrator 26.0.3, SVG Export Plug-In . SVG Version: 6.00 Build 0)  -->

<svg
   version="1.0"
   id="katman_1"
   x="0px"
   y="0px"
   viewBox="0 0 600 225"
   xml:space="preserve"
   sodipodi:docname="ahrefs-seo-tool.svg"
   width="600"
   height="225"
   inkscape:version="1.1.2 (0a00cf5339, 2022-02-04)"
   xmlns:inkscape="http://www.inkscape.org/namespaces/inkscape"
   xmlns:sodipodi="http://sodipodi.sourceforge.net/DTD/sodipodi-0.dtd"
   xmlns="http://www.w3.org/2000/svg"
   xmlns:svg="http://www.w3.org/2000/svg"><defs
   id="defs11" /><sodipodi:namedview
   id="namedview9"
   pagecolor="#ffffff"
   bordercolor="#666666"
   borderopacity="1.0"
   inkscape:pageshadow="2"
   inkscape:pageopacity="0.0"
   inkscape:pagecheckerboard="0"
   showgrid="false"
   inkscape:zoom="0.46166667"
   inkscape:cx="-37.906137"
   inkscape:cy="160.28881"
   inkscape:window-width="1920"
   inkscape:window-height="1003"
   inkscape:window-x="0"
   inkscape:window-y="0"
   inkscape:window-maximized="1"
   inkscape:current-layer="katman_1" />
<style
   type="text/css"
   id="style2">
	.st0{fill:#F18618;}
	.st1{fill-rule:evenodd;clip-rule:evenodd;fill:#2E53A0;}
</style>
<path
   class="st0"
   d="m 80,98.148186 h 44.3 v 12.400004 l -16.7,1.3 c -26.9,2 -35.3,9.1 -35.3,29.1 v 4 c 0,14.6 10.2,23.4 26,23.4 12.4,0 19.6,-2.9 28.4,-11.9 h 1.5 v 9.5 H 146 V 78.648186 H 80 Z m 44.3,42.100004 c -5.5,5.5 -13.7,9.1 -20.5,9.1 -7.3,0 -10.4,-2.7 -10.2,-8.8 0.2,-8.4 3.3,-10.4 17.4,-11.7 l 13.4,-1.3 v 12.7 z"
   id="path4" />
<path
   class="st1"
   d="m 183.2,78.748186 h 34.2 v 17.8 h 18.7 V 166.04819 H 214.3 V 98.348186 H 183.2 V 166.04819 H 161.4 V 52.548186 h 21.8 z m 318.4,35.200004 -13.2,-1.3 c -7.3,-0.7 -9.1,-2.6 -9.1,-8.4 0,-6.600004 2.6,-8.200004 12.8,-8.200004 9.1,0 11.7,1.5 13,7.700004 h 20.5 c -0.5,-20.900004 -7,-26.200004 -32.4,-26.200004 -27.8,0 -34.8,5.3 -34.8,26.700004 0,19.6 5.1,24.9 25.8,26.9 l 10.8,1 c 9.7,0.9 12.1,2.7 12.1,8.6 0,7.1 -2.9,9 -14.8,9 -10.4,0 -13.2,-1.6 -13.7,-8.4 h -20.7 c 0.5,21.6 7.1,27.1 33.5,27.1 29.3,0 36.6,-5.9 36.6,-29.7 0,-17.7 -5.3,-22.8 -26.4,-24.8 z m -112.1,1.6 c 0,-28.200004 -9.7,-38.100004 -37.5,-38.100004 -27.5,0 -38.2,12.8 -38.2,44.700004 0,34.8 9.5,46.3 40.3,46.3 22.1,0 31.5,-6.8 34.6,-25.8 h -21 c -2.4,5.9 -4.9,7.2 -13.9,7.2 -13.5,0 -17,-3.8 -17.8,-20.1 h 52.2 c 0.8,-4.8 1.2,-9.5 1.3,-14.2 z m -53.4,-3.1 c 0.2,-12.3 5.1,-16.800004 16.8,-16.800004 11.2,0 15.7,4.600004 16.1,16.800004 z M 402.2,82.648186 V 166.14819 H 424 V 97.548186 h 26.2 v -18.7 H 424 v -2.4 c 0.2,-5.1 1.5,-6.6 5.7,-6.6 h 23.8 v -17.2 h -25.6 c -17.5,-0.1 -25.7,5.3 -25.7,30 z M 273.8,166.04819 H 252 V 78.748186 h 54.2 v 20.5 h -32.4 z"
   id="path6" />
</svg>
