<?xml version="1.0" standalone="no"?><!-- Generator: Gravit.io --><svg xmlns="http://www.w3.org/2000/svg" xmlns:xlink="http://www.w3.org/1999/xlink" style="isolation:isolate" viewBox="0 0 176.515 51.465" width="176.515" height="51.465"><defs><clipPath id="_clipPath_mg4IQxf7rQfvUfOLtmLGxNX43fQNTLN6"><rect width="176.515" height="51.465"/></clipPath></defs><g clip-path="url(#_clipPath_mg4IQxf7rQfvUfOLtmLGxNX43fQNTLN6)"><path d=" M 0 46.153 L 10.787 46.153 C 11.901 46.153 12.812 45.242 12.812 44.128 L 12.812 25.438 L 32.947 47.863 L 53.083 25.438 L 53.083 44.128 C 53.083 45.242 53.994 46.153 55.108 46.153 L 65.894 46.153 L 65.894 6.105 L 56.735 6.105 C 54.088 6.105 52.115 7.38 51.049 8.566 L 32.947 28.726 L 14.845 8.566 C 13.78 7.38 11.806 6.105 9.16 6.105 L 0 6.105 L 0 46.153 Z " fill-rule="evenodd" fill="rgb(36,171,226)"/><path d=" M 121.126 46.153 L 174.49 46.153 C 175.604 46.153 176.515 45.242 176.515 44.128 L 176.515 33.462 L 150.568 33.462 L 176.44 6.142 L 123.109 6.142 C 121.996 6.142 121.084 7.054 121.084 8.167 L 121.084 18.833 L 146.998 18.833 L 121.126 46.153 Z " fill-rule="evenodd" fill="rgb(36,171,226)"/><path d=" M 95.064 0 C 111.349 0 124.551 11.383 124.551 25.733 C 124.551 40.082 111.349 51.465 95.064 51.465 C 78.778 51.465 65.577 40.082 65.577 25.733 C 65.577 11.383 78.778 0 95.064 0 Z  M 95.064 12.859 C 103.005 12.859 109.815 18.623 109.815 25.733 C 109.815 32.842 103.211 38.606 95.064 38.606 C 86.917 38.606 80.312 32.842 80.312 25.733 C 80.312 18.623 87.123 12.859 95.064 12.859 Z " fill-rule="evenodd" fill="rgb(36,171,226)"/></g></svg>