<?xml version="1.0" encoding="UTF-8" standalone="no"?>
<svg
   width="400"
   zoomAndPan="magnify"
   viewBox="0 0 300 112.49999"
   height="150"
   preserveAspectRatio="xMidYMid meet"
   version="1.0"
   id="svg179"
   sodipodi:docname="logo-seo-hive.svg"
   inkscape:version="1.1.2 (0a00cf5339, 2022-02-04)"
   xmlns:inkscape="http://www.inkscape.org/namespaces/inkscape"
   xmlns:sodipodi="http://sodipodi.sourceforge.net/DTD/sodipodi-0.dtd"
   xmlns="http://www.w3.org/2000/svg"
   xmlns:svg="http://www.w3.org/2000/svg">
  <sodipodi:namedview
     id="namedview181"
     pagecolor="#ffffff"
     bordercolor="#666666"
     borderopacity="1.0"
     inkscape:pageshadow="2"
     inkscape:pageopacity="0.0"
     inkscape:pagecheckerboard="0"
     showgrid="false"
     height="150px"
     inkscape:zoom="1.662"
     inkscape:cx="228.94103"
     inkscape:cy="161.85319"
     inkscape:window-width="1920"
     inkscape:window-height="1003"
     inkscape:window-x="0"
     inkscape:window-y="0"
     inkscape:window-maximized="1"
     inkscape:current-layer="svg179" />
  <defs
     id="defs13">
    <g
       id="g2" />
    <clipPath
       id="9ae49b6bc3">
      <path
         d="M 55.828125,156 H 91 v 39 H 55.828125 Z m 0,0"
         clip-rule="nonzero"
         id="path4" />
    </clipPath>
    <clipPath
       id="1028f45ae2">
      <path
         d="m 127,155.23047 h 39 V 192 h -39 z m 0,0"
         clip-rule="nonzero"
         id="path7" />
    </clipPath>
    <clipPath
       id="78c9b83dc4">
      <path
         d="m 138.69141,173.73437 h 22.89843 v 31.7461 h -22.89843 z m 0,0"
         clip-rule="nonzero"
         id="path10" />
    </clipPath>
  </defs>
  <g
     clip-path="url(#9ae49b6bc3)"
     id="g17"
     transform="translate(-33.826173,-132.43404)">
    <path
       fill="#2846d3"
       d="m 69.761719,167.05859 c 0,-1.83984 2.101562,-2.78515 3.625,-2.78515 3.679687,0 6.730469,2.20703 6.730469,6.09765 h 9.515624 v -13.19531 h -9.042968 l -0.527344,4.41406 c -2.101562,-3.9414 -6.570312,-5.35937 -10.988281,-5.35937 -5.148438,0 -12.511719,3.52344 -12.511719,11.30078 0,13.40625 20.1875,11.67187 20.1875,15.77344 0,2.20703 -2.625,2.6289 -4.464844,2.6289 -2.210937,-0.10547 -6.625,-0.83984 -6.625,-5.25781 h -9.78125 v 13.25 h 9.203125 l 0.578125,-4.05078 c 1.996094,2.36719 5.675782,4.83984 10.988282,4.83984 6.253906,0 13.929687,-2.94531 13.929687,-11.14843 0,-12.35157 -20.816406,-11.08985 -20.816406,-16.50782"
       fill-opacity="1"
       fill-rule="nonzero"
       id="path15" />
  </g>
  <path
     fill="#2846d3"
     d="m 59.380858,31.679237 h 3.3125 v 22.82031 h -3.3125 v 6.99219 h 31.703129 v -11.88281 h -9.09375 v 4.89062 h -8.41407 v -8.57031 h 9.99219 v -6.99219 h -9.99219 v -7.25781 h 8.41407 v 4.67969 h 9.09375 V 24.741737 H 59.380858 v 6.9375"
     fill-opacity="1"
     fill-rule="nonzero"
     id="path19" />
  <path
     fill="#2846d3"
     d="m 118.00977,42.272987 c 0,-3.00781 -2.4375,-5.44531 -5.44532,-5.44531 -3.00781,0 -5.44531,2.4375 -5.44531,5.44531 0,1.57031 0.66797,2.98828 1.73047,3.98047 v -2.28125 c 0,-0.0937 0.008,-0.18359 0.0117,-0.27344 -0.17188,-0.44531 -0.26563,-0.92187 -0.26563,-1.42578 0,-2.1875 1.78125,-3.96875 3.96875,-3.96875 2.1875,0 3.96875,1.78125 3.96875,3.96875 0,0.50391 -0.0937,0.98047 -0.26562,1.42578 0.004,0.0898 0.008,0.17969 0.008,0.27344 v 2.28125 c 1.06641,-0.99219 1.73438,-2.41016 1.73438,-3.98047"
     fill-opacity="1"
     fill-rule="nonzero"
     id="path21" />
  <path
     fill="#2846d3"
     d="m 118.38086,49.515177 c 0.5,0.17969 0.94922,0.46094 1.32422,0.82031 2.22656,-1.97656 3.62891,-4.85547 3.62891,-8.0625 0,-5.94922 -4.82032,-10.76953 -10.76954,-10.76953 -5.94921,0 -10.76953,4.82031 -10.76953,10.76953 0,4.64453 2.9375,8.60156 7.05469,10.11328 v -1.59375 c -3.28125,-1.4375 -5.58203,-4.71484 -5.58203,-8.51953 0,-5.125 4.17187,-9.29687 9.29687,-9.29687 5.125,0 9.29688,4.17187 9.29688,9.29687 0,2.92578 -1.35938,5.53906 -3.48047,7.24219"
     fill-opacity="1"
     fill-rule="nonzero"
     id="path23" />
  <g
     clip-path="url(#1028f45ae2)"
     id="g27"
     transform="translate(-33.826173,-132.43404)">
    <path
       fill="#2846d3"
       d="m 146.40625,155.23047 c -10.68359,0 -19.34766,8.66406 -19.34766,19.34765 0,7.58204 4.36719,14.14454 10.71875,17.31641 -0.008,-0.0391 -0.0195,-0.0781 -0.0273,-0.11719 -0.0977,-0.40234 -0.22656,-0.84765 -0.36328,-1.32031 -0.40625,-1.39844 -0.82422,-2.83203 -0.63281,-4.11328 -3.39844,-2.78906 -5.56641,-7.02344 -5.56641,-11.76563 0,-8.40625 6.8125,-15.21875 15.21875,-15.21875 8.40625,0 15.21875,6.8125 15.21875,15.21875 0,3.64454 -1.28125,6.99219 -3.42188,9.61719 0.39063,0.33203 0.72266,0.73828 0.97657,1.19531 0.0703,-0.004 0.13672,-0.008 0.20312,-0.008 0.94922,0 1.80469,0.30078 2.49219,0.81641 2.43359,-3.23438 3.87891,-7.25781 3.87891,-11.6211 0,-10.68359 -8.66407,-19.34765 -19.34766,-19.34765"
       fill-opacity="1"
       fill-rule="nonzero"
       id="path25" />
  </g>
  <g
     clip-path="url(#78c9b83dc4)"
     id="g31"
     transform="translate(-33.826173,-132.43404)">
    <path
       fill="#2846d3"
       d="m 159.38281,187.44922 c -0.76172,0 -1.28515,0.34765 -1.69531,0.92578 v -0.73828 c 0,-1.42578 -1.05469,-2.4336 -2.35156,-2.4336 -0.875,0 -1.63672,0.45704 -2.04297,1.1875 v -0.6875 c 0,-1.46875 -1.08203,-2.50781 -2.41797,-2.50781 -1.01953,0 -1.89063,0.60156 -2.24609,1.53906 v -8.32812 c 0,-1.46484 -1.00391,-2.65625 -2.23829,-2.65625 -1.23437,0 -2.23828,1.19141 -2.23828,2.65625 v 14.58203 c -0.3125,-0.92187 -0.59765,-1.73437 -0.82031,-2.3125 -0.79687,-2.05859 -2.33594,-3.32422 -3.60156,-3.05859 -1.88672,0.40234 -0.51563,3.39843 0.0273,5.68359 0.44531,1.875 1.42578,5.44531 1.77344,6.30859 0.60156,1.50782 1.25,2.78907 1.89453,3.65235 2.01172,3.07422 5.14063,4.40625 8.58594,4.40625 4.17187,0 9.48828,-2.45703 9.48828,-9.83203 h -0.008 c 0.004,-0.0586 0.008,-0.11719 0.008,-0.17578 v -5.92579 c 0,-1.34375 -0.86719,-2.28515 -2.11719,-2.28515"
       fill-opacity="1"
       fill-rule="nonzero"
       id="path29" />
  </g>
  <g
     fill="#111d59"
     fill-opacity="1"
     id="g39"
     transform="translate(-33.826173,-132.43404)">
    <g
       transform="translate(178.15486,191.96671)"
       id="g37">
      <g
         id="g35">
        <path
           d="m 1.277344,-35.699219 v 6.742188 H 4.085938 V -6.742188 H 1.277344 V 0 H 17.824219 V -6.742188 H 14.65625 v -7.710937 h 9.707031 v 7.710937 H 21.347656 V 0 h 16.597656 v -6.742188 h -2.960937 v -22.214843 h 2.960937 v -6.742188 H 21.347656 v 6.742188 h 3.015625 v 7.710937 H 14.65625 v -7.710937 h 3.167969 v -6.742188 z m 0,0"
           id="path33" />
      </g>
    </g>
  </g>
  <g
     fill="#111d59"
     fill-opacity="1"
     id="g47"
     transform="translate(-33.826173,-132.43404)">
    <g
       transform="translate(217.37716,191.96671)"
       id="g45">
      <g
         id="g43">
        <path
           d="m 1.277344,-35.699219 v 6.742188 h 3.21875 V -6.792969 H 1.277344 V 0 h 16.957031 v -6.792969 h -3.167969 v -22.164062 h 3.167969 v -6.742188 z m 0,0"
           id="path41" />
      </g>
    </g>
  </g>
  <g
     fill="#111d59"
     fill-opacity="1"
     id="g55"
     transform="translate(-33.826173,-132.43404)">
    <g
       transform="translate(236.88618,191.96671)"
       id="g53">
      <g
         id="g51">
        <path
           d="m 21.449219,-11.441406 c -0.101563,-1.429688 -0.765625,-3.675782 -1.582031,-6.179688 l -4.339844,-11.4375 h 2.757812 v -6.640625 H -0.511719 v 6.640625 H 2.296875 L 15.832031,0 h 9.398438 l 12.257812,-29.058594 h 2.5 v -6.640625 H 25.484375 v 6.640625 h 2.707031 l -4.648437,11.132813 c -1.019531,2.554687 -1.734375,5.054687 -1.835938,6.484375 z m 0,0"
           id="path49" />
      </g>
    </g>
  </g>
  <g
     fill="#111d59"
     fill-opacity="1"
     id="g63"
     transform="translate(-33.826173,-132.43404)">
    <g
       transform="translate(276.36383,191.96671)"
       id="g61">
      <g
         id="g59">
        <path
           d="m 1.277344,-35.699219 v 6.742188 h 3.21875 V -6.792969 H 1.277344 V 0 h 30.796875 v -11.542969 h -8.835938 v 4.75 h -8.171875 v -8.324219 h 9.703125 v -6.792968 h -9.703125 v -7.046875 h 8.171875 v 4.542969 h 8.835938 v -11.285157 z m 0,0"
           id="path57" />
      </g>
    </g>
  </g>
  <g
     fill="#111d59"
     fill-opacity="1"
     id="g177"
     transform="translate(-33.826173,-132.43404)">
    <g
       transform="translate(114.1247,221.8366)"
       id="g69">
      <g
         id="g67">
        <path
           d="M 1.390625,0 V -10.109375 H 2.5625 V -1.0625 H 7.03125 V 0 Z m 0,0"
           id="path65" />
      </g>
    </g>
    <g
       transform="translate(121.47683,221.8366)"
       id="g75">
      <g
         id="g73">
        <path
           d="M 7.03125,0 H 1.390625 V -10.109375 H 7.03125 v 1.03125 H 2.5625 V -5.8125 h 4.203125 v 1.03125 H 2.5625 v 3.734375 h 4.46875 z m 0,0"
           id="path71" />
      </g>
    </g>
    <g
       transform="translate(129.35461,221.8366)"
       id="g81">
      <g
         id="g79">
        <path
           d="M 4.5,0 H 3.328125 V -9.078125 H 0.125 v -1.03125 h 7.578125 v 1.03125 H 4.5 Z m 0,0"
           id="path77" />
      </g>
    </g>
    <g
       transform="translate(137.19088,221.8366)"
       id="g85">
      <g
         id="g83" />
    </g>
    <g
       transform="translate(140.87041,221.8366)"
       id="g91">
      <g
         id="g89">
        <path
           d="m 9.03125,-10.109375 v 6.53125 c 0,1.15625 -0.351562,2.070313 -1.046875,2.734375 -0.699219,0.65625 -1.65625,0.984375 -2.875,0.984375 -1.21875,0 -2.164063,-0.332031 -2.828125,-1 -0.667969,-0.664063 -1,-1.578125 -1,-2.734375 v -6.515625 h 1.1875 v 6.59375 c 0,0.84375 0.226562,1.496094 0.6875,1.953125 0.457031,0.449219 1.132812,0.671875 2.03125,0.671875 0.851562,0 1.507812,-0.222656 1.96875,-0.671875 0.46875,-0.457031 0.703125,-1.113281 0.703125,-1.96875 v -6.578125 z m 0,0"
           id="path87" />
      </g>
    </g>
    <g
       transform="translate(151.18276,221.8366)"
       id="g97">
      <g
         id="g95">
        <path
           d="m 7.09375,-2.6875 c 0,0.886719 -0.324219,1.578125 -0.96875,2.078125 -0.648438,0.5 -1.523438,0.75 -2.625,0.75 -1.199219,0 -2.121094,-0.15625 -2.765625,-0.46875 v -1.125 c 0.414063,0.167969 0.867187,0.304687 1.359375,0.40625 0.488281,0.105469 0.972656,0.15625 1.453125,0.15625 0.78125,0 1.367187,-0.144531 1.765625,-0.4375 0.394531,-0.300781 0.59375,-0.71875 0.59375,-1.25 C 5.90625,-2.929688 5.832031,-3.21875 5.6875,-3.4375 5.550781,-3.664062 5.316406,-3.875 4.984375,-4.0625 4.660156,-4.25 4.160156,-4.460938 3.484375,-4.703125 2.546875,-5.035156 1.875,-5.429688 1.46875,-5.890625 1.0625,-6.359375 0.859375,-6.960938 0.859375,-7.703125 c 0,-0.78125 0.289063,-1.398437 0.875,-1.859375 0.59375,-0.46875 1.367187,-0.703125 2.328125,-0.703125 1.007812,0 1.9375,0.1875 2.78125,0.5625 L 6.484375,-8.6875 c -0.84375,-0.34375 -1.65625,-0.515625 -2.4375,-0.515625 -0.625,0 -1.117187,0.136719 -1.46875,0.40625 C 2.234375,-8.535156 2.0625,-8.164062 2.0625,-7.6875 c 0,0.34375 0.0625,0.632812 0.1875,0.859375 0.125,0.21875 0.335938,0.421875 0.640625,0.609375 0.3125,0.1875 0.785156,0.398438 1.421875,0.625 1.0625,0.375 1.789062,0.78125 2.1875,1.21875 0.394531,0.429688 0.59375,0.992188 0.59375,1.6875 z m 0,0"
           id="path93" />
      </g>
    </g>
    <g
       transform="translate(158.95679,221.8366)"
       id="g101">
      <g
         id="g99" />
    </g>
    <g
       transform="translate(162.63632,221.8366)"
       id="g107">
      <g
         id="g105">
        <path
           d="m 9.078125,0 h -1.1875 V -4.765625 H 2.5625 V 0 H 1.390625 V -10.109375 H 2.5625 V -5.8125 h 5.328125 v -4.296875 h 1.1875 z m 0,0"
           id="path103" />
      </g>
    </g>
    <g
       transform="translate(173.08699,221.8366)"
       id="g113">
      <g
         id="g111">
        <path
           d="M 7.03125,0 H 1.390625 V -10.109375 H 7.03125 v 1.03125 H 2.5625 V -5.8125 h 4.203125 v 1.03125 H 2.5625 v 3.734375 h 4.46875 z m 0,0"
           id="path109" />
      </g>
    </g>
    <g
       transform="translate(180.96477,221.8366)"
       id="g119">
      <g
         id="g117">
        <path
           d="M 1.390625,0 V -10.109375 H 2.5625 V -1.0625 H 7.03125 V 0 Z m 0,0"
           id="path115" />
      </g>
    </g>
    <g
       transform="translate(188.3169,221.8366)"
       id="g125">
      <g
         id="g123">
        <path
           d="m 7.8125,-7.171875 c 0,1.03125 -0.355469,1.824219 -1.0625,2.375 -0.699219,0.542969 -1.699219,0.8125 -3,0.8125 H 2.5625 V 0 H 1.390625 v -10.109375 h 2.625 c 2.53125,0 3.796875,0.980469 3.796875,2.9375 z m -5.25,2.1875 H 3.625 c 1.039062,0 1.796875,-0.164063 2.265625,-0.5 0.46875,-0.34375 0.703125,-0.882813 0.703125,-1.625 0,-0.664063 -0.226562,-1.160156 -0.671875,-1.484375 -0.4375,-0.332031 -1.121094,-0.5 -2.046875,-0.5 H 2.5625 Z m 0,0"
           id="path121" />
      </g>
    </g>
    <g
       transform="translate(196.84482,221.8366)"
       id="g129">
      <g
         id="g127" />
    </g>
    <g
       transform="translate(200.52435,221.8366)"
       id="g135">
      <g
         id="g133">
        <path
           d="m 3.96875,-5.0625 2.6875,-5.046875 H 7.9375 l -3.375,6.1875 V 0 H 3.375 V -3.875 L 0,-10.109375 h 1.28125 z m 0,0"
           id="path131" />
      </g>
    </g>
    <g
       transform="translate(208.45746,221.8366)"
       id="g141">
      <g
         id="g139">
        <path
           d="m 10.171875,-5.078125 c 0,1.625 -0.414063,2.902344 -1.234375,3.828125 -0.8125,0.929688 -1.949219,1.390625 -3.40625,1.390625 -1.492188,0 -2.640625,-0.453125 -3.453125,-1.359375 -0.8125,-0.914062 -1.21875,-2.207031 -1.21875,-3.875 0,-1.644531 0.40625,-2.921875 1.21875,-3.828125 0.8125,-0.90625 1.96875,-1.359375 3.46875,-1.359375 1.445313,0 2.578125,0.464844 3.390625,1.390625 0.820312,0.917969 1.234375,2.1875 1.234375,3.8125 z m -8.0625,0 c 0,1.375 0.289063,2.417969 0.875,3.125 0.582031,0.710937 1.429687,1.0625 2.546875,1.0625 1.113281,0 1.957031,-0.351563 2.53125,-1.0625 0.570312,-0.707031 0.859375,-1.75 0.859375,-3.125 0,-1.351563 -0.289063,-2.378906 -0.859375,-3.078125 -0.5625,-0.707031 -1.402344,-1.0625 -2.515625,-1.0625 -1.125,0 -1.980469,0.355469 -2.5625,1.0625 -0.585937,0.710938 -0.875,1.734375 -0.875,3.078125 z m 0,0"
           id="path137" />
      </g>
    </g>
    <g
       transform="translate(219.48911,221.8366)"
       id="g147">
      <g
         id="g145">
        <path
           d="m 9.03125,-10.109375 v 6.53125 c 0,1.15625 -0.351562,2.070313 -1.046875,2.734375 -0.699219,0.65625 -1.65625,0.984375 -2.875,0.984375 -1.21875,0 -2.164063,-0.332031 -2.828125,-1 -0.667969,-0.664063 -1,-1.578125 -1,-2.734375 v -6.515625 h 1.1875 v 6.59375 c 0,0.84375 0.226562,1.496094 0.6875,1.953125 0.457031,0.449219 1.132812,0.671875 2.03125,0.671875 0.851562,0 1.507812,-0.222656 1.96875,-0.671875 0.46875,-0.457031 0.703125,-1.113281 0.703125,-1.96875 v -6.578125 z m 0,0"
           id="path143" />
      </g>
    </g>
    <g
       transform="translate(229.80146,221.8366)"
       id="g153">
      <g
         id="g151">
        <path
           d="M 2.5625,-4.203125 V 0 H 1.390625 v -10.109375 h 2.78125 c 1.238281,0 2.15625,0.242187 2.75,0.71875 0.59375,0.46875 0.890625,1.179687 0.890625,2.125 0,1.34375 -0.683594,2.25 -2.046875,2.71875 L 8.515625,0 H 7.125 L 4.671875,-4.203125 Z m 0,-1.015625 h 1.609375 c 0.832031,0 1.441406,-0.160156 1.828125,-0.484375 0.394531,-0.332031 0.59375,-0.832031 0.59375,-1.5 0,-0.664063 -0.199219,-1.144531 -0.59375,-1.4375 -0.398438,-0.289063 -1.03125,-0.4375 -1.90625,-0.4375 H 2.5625 Z m 0,0"
           id="path149" />
      </g>
    </g>
    <g
       transform="translate(238.55762,221.8366)"
       id="g157">
      <g
         id="g155" />
    </g>
    <g
       transform="translate(242.23715,221.8366)"
       id="g163">
      <g
         id="g161">
        <path
           d="m 7.09375,-2.6875 c 0,0.886719 -0.324219,1.578125 -0.96875,2.078125 -0.648438,0.5 -1.523438,0.75 -2.625,0.75 -1.199219,0 -2.121094,-0.15625 -2.765625,-0.46875 v -1.125 c 0.414063,0.167969 0.867187,0.304687 1.359375,0.40625 0.488281,0.105469 0.972656,0.15625 1.453125,0.15625 0.78125,0 1.367187,-0.144531 1.765625,-0.4375 0.394531,-0.300781 0.59375,-0.71875 0.59375,-1.25 C 5.90625,-2.929688 5.832031,-3.21875 5.6875,-3.4375 5.550781,-3.664062 5.316406,-3.875 4.984375,-4.0625 4.660156,-4.25 4.160156,-4.460938 3.484375,-4.703125 2.546875,-5.035156 1.875,-5.429688 1.46875,-5.890625 1.0625,-6.359375 0.859375,-6.960938 0.859375,-7.703125 c 0,-0.78125 0.289063,-1.398437 0.875,-1.859375 0.59375,-0.46875 1.367187,-0.703125 2.328125,-0.703125 1.007812,0 1.9375,0.1875 2.78125,0.5625 L 6.484375,-8.6875 c -0.84375,-0.34375 -1.65625,-0.515625 -2.4375,-0.515625 -0.625,0 -1.117187,0.136719 -1.46875,0.40625 C 2.234375,-8.535156 2.0625,-8.164062 2.0625,-7.6875 c 0,0.34375 0.0625,0.632812 0.1875,0.859375 0.125,0.21875 0.335938,0.421875 0.640625,0.609375 0.3125,0.1875 0.785156,0.398438 1.421875,0.625 1.0625,0.375 1.789062,0.78125 2.1875,1.21875 0.394531,0.429688 0.59375,0.992188 0.59375,1.6875 z m 0,0"
           id="path159" />
      </g>
    </g>
    <g
       transform="translate(250.01118,221.8366)"
       id="g169">
      <g
         id="g167">
        <path
           d="M 7.03125,0 H 1.390625 V -10.109375 H 7.03125 v 1.03125 H 2.5625 V -5.8125 h 4.203125 v 1.03125 H 2.5625 v 3.734375 h 4.46875 z m 0,0"
           id="path165" />
      </g>
    </g>
    <g
       transform="translate(257.88896,221.8366)"
       id="g175">
      <g
         id="g173">
        <path
           d="m 10.171875,-5.078125 c 0,1.625 -0.414063,2.902344 -1.234375,3.828125 -0.8125,0.929688 -1.949219,1.390625 -3.40625,1.390625 -1.492188,0 -2.640625,-0.453125 -3.453125,-1.359375 -0.8125,-0.914062 -1.21875,-2.207031 -1.21875,-3.875 0,-1.644531 0.40625,-2.921875 1.21875,-3.828125 0.8125,-0.90625 1.96875,-1.359375 3.46875,-1.359375 1.445313,0 2.578125,0.464844 3.390625,1.390625 0.820312,0.917969 1.234375,2.1875 1.234375,3.8125 z m -8.0625,0 c 0,1.375 0.289063,2.417969 0.875,3.125 0.582031,0.710937 1.429687,1.0625 2.546875,1.0625 1.113281,0 1.957031,-0.351563 2.53125,-1.0625 0.570312,-0.707031 0.859375,-1.75 0.859375,-3.125 0,-1.351563 -0.289063,-2.378906 -0.859375,-3.078125 -0.5625,-0.707031 -1.402344,-1.0625 -2.515625,-1.0625 -1.125,0 -1.980469,0.355469 -2.5625,1.0625 -0.585937,0.710938 -0.875,1.734375 -0.875,3.078125 z m 0,0"
           id="path171" />
      </g>
    </g>
  </g>
</svg>
