<?xml version="1.0" encoding="UTF-8" standalone="no"?>
<!-- Generator: Adobe Illustrator 25.0.1, SVG Export Plug-In . SVG Version: 6.00 Build 0)  -->

<svg
   version="1.0"
   id="Layer_1"
   x="0px"
   y="0px"
   viewBox="0 0 2330.7 700"
   xml:space="preserve"
   sodipodi:docname="se-ranking.svg"
   width="2330.7"
   height="700"
   inkscape:version="1.1.2 (0a00cf5339, 2022-02-04)"
   xmlns:inkscape="http://www.inkscape.org/namespaces/inkscape"
   xmlns:sodipodi="http://sodipodi.sourceforge.net/DTD/sodipodi-0.dtd"
   xmlns:xlink="http://www.w3.org/1999/xlink"
   xmlns="http://www.w3.org/2000/svg"
   xmlns:svg="http://www.w3.org/2000/svg"><defs
   id="defs41" /><sodipodi:namedview
   id="namedview39"
   pagecolor="#ffffff"
   bordercolor="#666666"
   borderopacity="1.0"
   inkscape:pageshadow="2"
   inkscape:pageopacity="0.0"
   inkscape:pagecheckerboard="0"
   showgrid="false"
   height="1000px"
   inkscape:zoom="0.26229405"
   inkscape:cx="627.15871"
   inkscape:cy="1017.9415"
   inkscape:window-width="1920"
   inkscape:window-height="1003"
   inkscape:window-x="0"
   inkscape:window-y="0"
   inkscape:window-maximized="1"
   inkscape:current-layer="Layer_1" />
<style
   type="text/css"
   id="style2">
	.st0{fill-rule:evenodd;clip-rule:evenodd;fill:#0080F7;}
	.st1{clip-path:url(#SVGID_3_);}
	.st2{clip-path:url(#SVGID_4_);fill:#212732;}
	.st3{clip-path:url(#SVGID_7_);}
	.st4{clip-path:url(#SVGID_8_);fill:#0080F7;}
</style>
<path
   class="st0"
   d="m 922.3,344.08959 c 0,15 -5.4,26.7 -16.3,35.4 -10.9,8.6 -25.9,12.9 -45.3,12.9 -17.8,0 -33.6,-3.3 -47.3,-10 v -32.6 c 11.3,5 20.8,8.5 28.6,10.5 7.8,2 14.9,3.1 21.4,3.1 7.8,0 13.7,-1.5 17.9,-4.4 4.2,-2.9 6.2,-7.3 6.2,-13.1 0,-3.2 -0.9,-6.1 -2.7,-8.7 -1.8,-2.5 -4.5,-5 -8.1,-7.3 -3.6,-2.3 -10.8,-6.1 -21.6,-11.2 -10.2,-4.8 -17.9,-9.3 -23,-13.7 -5.1,-4.4 -9.2,-9.5 -12.2,-15.3 -3,-5.8 -4.6,-12.6 -4.6,-20.4 0,-14.7 5,-26.2 15,-34.6 10,-8.4 23.9,-12.6 41.5,-12.6 8.7,0 17,1 24.8,3.1 7.9,2 16.1,4.9 24.7,8.6 l -11.4,27.3 c -8.9,-3.6 -16.3,-6.2 -22.1,-7.6 -5.8,-1.4 -11.6,-2.2 -17.2,-2.2 -6.7,0 -11.8,1.5 -15.4,4.6 -3.6,3.1 -5.4,7.1 -5.4,12.1 0,3.1 0.7,5.8 2.2,8.1 1.4,2.3 3.8,4.5 6.9,6.7 3.2,2.2 10.6,6 22.4,11.6 15.6,7.4 26.3,14.8 32.1,22.3 6,7.5 8.9,16.6 8.9,27.4 z m 126.4,46 h -96.2 v -165.6 h 96.2 v 28.8 H 988 v 36.4 h 56.5 v 28.8 H 988 v 42.7 h 60.8 v 28.9 z"
   id="path4" />
<g
   id="g20"
   transform="translate(0,-498.11041)">
	<defs
   id="defs7">
		<rect
   id="SVGID_1_"
   x="203.10001"
   y="314.79999"
   width="1910"
   height="956" />
	</defs>
	<defs
   id="defs10">
		<path
   id="SVGID_2_"
   d="m 1140.2,799.3 h 19.1 c 12.8,0 22.1,-2.3 27.8,-7 5.7,-4.7 8.6,-11.6 8.6,-20.8 0,-9.4 -3.1,-16.1 -9.3,-20.2 -6.2,-4.1 -15.5,-6.1 -28,-6.1 h -18.2 z m 0,22.4 v 66.2 h -27.5 V 722.2 h 47.5 c 21.7,0 37.7,4 48.1,12 10.4,8 15.6,20.1 15.6,36.3 0,20.6 -10.9,35.3 -32.6,44.1 l 47.5,73.3 h -31.3 l -40.2,-66.2 z m 197.7,66.2 -5.4,-17.5 h -0.9 c -6.1,7.6 -12.3,12.8 -18.5,15.6 -6.2,2.8 -14.2,4.1 -23.9,4.1 -12.5,0 -22.2,-3.3 -29.2,-10 -7,-6.6 -10.5,-16.1 -10.5,-28.2 0,-12.9 4.9,-22.7 14.6,-29.2 9.7,-6.6 24.5,-10.2 44.5,-10.8 l 21.9,-0.7 v -6.7 c 0,-8 -1.9,-14 -5.7,-18 -3.8,-4 -9.7,-5.9 -17.6,-5.9 -6.5,0 -12.8,0.9 -18.7,2.8 -6,1.9 -11.7,4.1 -17.2,6.7 l -8.7,-19 c 6.9,-3.6 14.4,-6.3 22.6,-8.1 8.2,-1.9 15.9,-2.8 23.2,-2.8 16.2,0 28.4,3.5 36.6,10.4 8.2,6.9 12.4,17.9 12.4,32.7 v 84.4 h -19.5 z m -40.2,-18.1 c 9.8,0 17.7,-2.7 23.6,-8.1 5.9,-5.4 8.9,-13 8.9,-22.7 v -10.9 l -16.3,0.7 c -12.7,0.5 -22,2.5 -27.7,6.3 -5.8,3.7 -8.7,9.5 -8.7,17.2 0,5.6 1.7,9.9 5.1,13 3.3,2.9 8.4,4.5 15.1,4.5 z m 207.2,18.1 h -27.1 v -77.1 c 0,-9.7 -2,-16.9 -5.9,-21.6 -3.9,-4.8 -10.2,-7.1 -18.8,-7.1 -11.4,0 -19.8,3.3 -25,10 -5.3,6.6 -7.9,17.8 -7.9,33.4 v 62.4 h -27 V 762.6 h 21.1 l 3.8,16.4 h 1.4 c 3.8,-6 9.3,-10.6 16.3,-13.8 7,-3.2 14.9,-4.9 23.4,-4.9 30.5,0 45.7,15.3 45.7,45.9 z m 61.8,-66.2 15.3,-18.8 38.4,-40.3 h 31.1 l -51.1,53.8 54.3,71.5 H 1623 l -40.8,-55 -14.8,12 v 42.9 h -26.8 V 711.6 h 26.8 v 86 l -1.4,24.1 z m 133.7,66.2 h -27 V 762.6 h 27 z m -28.6,-158.5 c 0,-4.8 1.3,-8.4 4,-11 2.6,-2.6 6.4,-3.9 11.3,-3.9 4.7,0 8.4,1.3 11.1,3.9 2.6,2.6 4,6.2 4,11 0,4.5 -1.3,8.1 -4,10.7 -2.6,2.6 -6.3,3.9 -11.1,3.9 -4.9,0 -8.7,-1.3 -11.3,-3.9 -2.7,-2.6 -4,-6.2 -4,-10.7 z M 1849,887.9 h -27.1 v -77.1 c 0,-9.7 -2,-16.9 -5.9,-21.6 -3.9,-4.8 -10.2,-7.1 -18.8,-7.1 -11.4,0 -19.8,3.3 -25,10 -5.2,6.7 -7.9,17.8 -7.9,33.4 v 62.4 h -27 V 762.6 h 21.1 l 3.8,16.4 h 1.4 c 3.8,-6 9.3,-10.6 16.3,-13.8 7,-3.2 14.9,-4.9 23.4,-4.9 30.5,0 45.7,15.3 45.7,45.9 z m 143.1,-125.3 v 14.6 l -21.7,4 c 2,2.6 3.6,5.9 4.9,9.7 1.3,3.9 2,7.9 2,12.2 0,12.9 -4.5,23.1 -13.6,30.5 -9,7.4 -21.5,11.1 -37.3,11.1 -4.1,0 -7.7,-0.3 -11,-0.9 -5.8,3.6 -8.7,7.7 -8.7,12.5 0,2.9 1.4,5 4.1,6.5 2.7,1.4 7.7,2.2 15,2.2 h 22.2 c 14,0 24.7,2.9 31.9,8.8 7.3,5.9 10.9,14.4 10.9,25.5 0,14.2 -5.9,25.2 -17.8,32.9 -11.9,7.7 -29,11.6 -51.5,11.6 -17.3,0 -30.5,-3 -39.6,-9.1 -9.1,-6.1 -13.7,-14.7 -13.7,-25.8 0,-7.7 2.5,-14.2 7.4,-19.4 4.9,-5.3 11.9,-8.9 20.7,-10.9 -3.6,-1.5 -6.6,-3.9 -8.9,-7.3 -2.3,-3.4 -3.5,-6.9 -3.5,-10.6 0,-4.7 1.3,-8.6 4,-11.9 2.7,-3.3 6.7,-6.5 11.9,-9.6 -6.6,-2.8 -11.9,-7.3 -16,-13.7 -4.1,-6.3 -6.1,-13.7 -6.1,-22.2 0,-13.6 4.3,-24.1 13,-31.6 8.7,-7.5 21.1,-11.2 37.2,-11.2 3.6,0 7.4,0.2 11.3,0.7 3.9,0.5 6.9,1 8.9,1.5 h 44 z m -99.9,144.8 c 0,5.7 2.6,10.2 7.9,13.3 5.2,3.1 12.6,4.6 22.1,4.6 14.7,0 25.7,-2.1 32.9,-6.2 7.2,-4.2 10.8,-9.7 10.8,-16.5 0,-5.4 -2,-9.3 -5.9,-11.6 -3.9,-2.3 -11.3,-3.5 -22,-3.5 h -20.5 c -7.7,0 -13.9,1.8 -18.4,5.4 -4.6,3.5 -6.9,8.4 -6.9,14.5 z m 11.6,-104.3 c 0,7.9 2,13.9 6.1,18.1 4.1,4.2 10,6.3 17.6,6.3 15.6,0 23.4,-8.2 23.4,-24.7 0,-8.2 -1.9,-14.4 -5.8,-18.9 -3.9,-4.4 -9.7,-6.6 -17.6,-6.6 -7.8,0 -13.7,2.2 -17.8,6.6 -3.9,4.5 -5.9,10.9 -5.9,19.2 z" />
	</defs>
	<clipPath
   id="SVGID_3_">
		<use
   xlink:href="#SVGID_1_"
   style="overflow:visible"
   id="use12"
   x="0"
   y="0"
   width="100%"
   height="100%" />
	</clipPath>
	<clipPath
   id="SVGID_4_"
   class="st1"
   clip-path="url(#SVGID_3_)">
		<use
   xlink:href="#SVGID_2_"
   style="overflow:visible"
   id="use15"
   x="0"
   y="0"
   width="100%"
   height="100%" />
	</clipPath>
	<rect
   x="1107.7"
   y="706.59998"
   class="st2"
   width="889.40002"
   height="242.10001"
   clip-path="url(#SVGID_4_)"
   id="rect18" />
</g>
<g
   id="g36"
   transform="translate(0,-498.11041)">
	<defs
   id="defs23">
		<rect
   id="SVGID_5_"
   x="203.10001"
   y="314.79999"
   width="1910"
   height="956" />
	</defs>
	<defs
   id="defs26">
		<path
   id="SVGID_6_"
   d="m 353.1,650.6 c 0,-16.4 13.3,-29.7 29.8,-29.7 h 331.9 c 16.4,0 29.8,13.4 29.8,29.7 v 285.5 c 0,16.4 -13.3,29.7 -29.8,29.7 H 382.9 c -16.4,0 -29.8,-13.4 -29.8,-29.7 z m 27,12.1 V 924 c 0,8 6.8,14.8 15.1,14.8 h 307.3 c 8.4,0 15.1,-6.6 15.1,-14.8 V 662.7 c 0,-8 -6.8,-14.8 -15.1,-14.8 H 395.2 c -8.4,-0.1 -15.1,6.6 -15.1,14.8 z m 13.5,135.1 c 0,-8.2 6.2,-14.9 13.9,-14.9 h 66.6 c 7.7,0 13.9,6.6 13.9,14.9 V 925.4 H 393.5 V 797.8 Z m 108,-54 c 0,-8.3 6.2,-15 13.9,-15 h 66.6 c 7.7,0 13.9,6.6 13.9,15 V 925.3 H 501.5 V 743.8 Z m 108,-54 c 0,-8.2 6.2,-14.9 13.9,-14.9 h 66.6 c 7.7,0 13.9,6.7 13.9,14.9 V 925.4 H 609.5 V 689.8 Z" />
	</defs>
	<clipPath
   id="SVGID_7_">
		<use
   xlink:href="#SVGID_5_"
   style="overflow:visible"
   id="use28"
   x="0"
   y="0"
   width="100%"
   height="100%" />
	</clipPath>
	<clipPath
   id="SVGID_8_"
   class="st3"
   clip-path="url(#SVGID_7_)">
		<use
   xlink:href="#SVGID_6_"
   style="overflow:visible"
   id="use31"
   x="0"
   y="0"
   width="100%"
   height="100%" />
	</clipPath>
	<rect
   x="348.10001"
   y="615.79999"
   class="st4"
   width="401.5"
   height="355"
   clip-path="url(#SVGID_8_)"
   id="rect34" />
</g>
</svg>
