<?xml version="1.0" encoding="UTF-8" standalone="no"?>
<!-- Generator: Adobe Illustrator 25.0.1, SVG Export Plug-In . SVG Version: 6.00 Build 0)  -->

<svg
   version="1.0"
   id="katman_1"
   x="0px"
   y="0px"
   viewBox="0 0 242 50"
   xml:space="preserve"
   sodipodi:docname="semrush-new.svg"
   width="242"
   height="50"
   inkscape:version="1.1.2 (0a00cf5339, 2022-02-04)"
   xmlns:inkscape="http://www.inkscape.org/namespaces/inkscape"
   xmlns:sodipodi="http://sodipodi.sourceforge.net/DTD/sodipodi-0.dtd"
   xmlns="http://www.w3.org/2000/svg"
   xmlns:svg="http://www.w3.org/2000/svg"><defs
   id="defs23" /><sodipodi:namedview
   id="namedview21"
   pagecolor="#ffffff"
   bordercolor="#666666"
   borderopacity="1.0"
   inkscape:pageshadow="2"
   inkscape:pageopacity="0.0"
   inkscape:pagecheckerboard="0"
   showgrid="false"
   inkscape:zoom="1.3822314"
   inkscape:cx="6.8729447"
   inkscape:cy="266.23617"
   inkscape:window-width="1920"
   inkscape:window-height="1003"
   inkscape:window-x="0"
   inkscape:window-y="0"
   inkscape:window-maximized="1"
   inkscape:current-layer="katman_1" />
<style
   type="text/css"
   id="style2">
	.st0{fill:#FF642D;}
</style>
<path
   d="m 157.7,25.165553 c 0,-3.2 -2,-5.5 -5.7,-5.5 h -12.2 v 16.6 h 4 v -5.7 h 4.7 l 4.6,5.7 h 4.5 v -0.4 l -4.5,-5.4 c 2.9,-0.6 4.6,-2.7 4.6,-5.3 z m -6.2,2 h -7.7 v -4.1 h 7.7 c 1.4,0 2.3,0.8 2.3,2.1 0.1,1.3 -0.8,2 -2.3,2 z"
   id="path4" />
<path
   d="m 218.1,19.565553 h -3.7 v 6.3 h -10.1 v -6.3 h -4 v 16.6 h 4 v -6.5 h 10.1 v 6.5 h 3.7 z"
   id="path6" />
<path
   d="m 129.1,19.565553 -4.4,13.9 h -0.2 l -4.5,-13.9 h -7.1 v 16.6 h 3.8 v -13.6 h 0.2 l 4.4,13.6 h 6.1 l 4.5,-13.6 h 0.2 v 13.6 h 3.9 v -16.6 z"
   id="path8" />
<path
   d="m 85.6,26.365553 c -1.4,-0.1 -4,-0.4 -5.5,-0.5 -1.4,-0.1 -2.2,-0.6 -2.2,-1.5 0,-0.9 0.9,-1.6 4.3,-1.6 3,0 5.8,0.7 8.3,1.8 v -3.7 c -2.4,-1.2 -5.1,-1.7 -8.5,-1.7 -4.7,0 -8,2 -8,5.3 0,2.8 1.9,4.4 5.8,4.8 1.4,0.2 3.8,0.4 5.4,0.5 1.8,0.1 2.3,0.7 2.3,1.5 0,1.1 -1.3,1.8 -4.4,1.8 -3.2,0 -6.5,-1.1 -8.9,-2.5 v 3.8 c 1.9,1.3 5.1,2.3 8.8,2.3 5.1,0 8.4,-2 8.4,-5.5 0,-2.7 -1.7,-4.4 -5.8,-4.8 z"
   id="path10" />
<path
   d="m 94.1,19.565553 v 16.6 h 15.4 v -3.4 H 97.9 v -3.4 h 11.4 v -3.4 H 97.9 v -3 h 11.6 v -3.4 z"
   id="path12" />
<path
   d="m 192,26.365553 c -1.4,-0.1 -4,-0.4 -5.5,-0.5 -1.4,-0.1 -2.2,-0.6 -2.2,-1.5 0,-0.9 0.9,-1.6 4.3,-1.6 3,0 5.8,0.6 8.3,1.8 v -3.7 c -2.4,-1.2 -5.1,-1.7 -8.5,-1.7 -4.7,0 -8,2 -8,5.3 0,2.8 1.9,4.4 5.8,4.8 1.4,0.2 3.8,0.4 5.4,0.5 1.8,0.1 2.3,0.7 2.3,1.5 0,1.1 -1.3,1.8 -4.4,1.8 -3.2,0 -6.5,-1.1 -8.9,-2.5 v 3.8 c 1.9,1.3 5.1,2.3 8.8,2.3 5.1,0 8.4,-2 8.4,-5.5 0,-2.7 -1.8,-4.4 -5.8,-4.8 z"
   id="path14" />
<path
   d="m 173.7,19.565553 v 8.5 c 0,3.2 -2,5 -4.9,5 -3,0 -4.9,-1.7 -4.9,-5 v -8.4 h -4 v 8.1 c 0,6 3.8,9 8.9,9 5,0 8.8,-2.9 8.8,-8.8 v -8.2 h -3.9 z"
   id="path16" />
<path
   class="st0"
   d="m 60.4,27.765553 c 0,0.8 -0.4,0.9 -1.4,0.9 -1.1,0 -1.3,-0.2 -1.4,-1 -0.2,-2.1 -1.6,-3.9 -4,-4 -0.7,-0.1 -0.9,-0.3 -0.9,-1.3 0,-0.9 0.1,-1.3 0.8,-1.3 4,0.1 6.9,3.4 6.9,6.7 z m 5.9,0 c 0,-6.2 -4.2,-12.8 -14,-12.8 H 33 c -0.4,0 -0.6,0.2 -0.6,0.6 0,0.2 0.1,0.4 0.3,0.5 0.7,0.6 1.7,1.2 3.1,1.9 1.3,0.7 2.4,1.1 3.4,1.5 0.4,0.2 0.6,0.4 0.6,0.6 0,0.3 -0.2,0.6 -0.7,0.6 H 23.7 c -0.5,0 -0.7,0.3 -0.7,0.6 0,0.3 0.1,0.5 0.3,0.7 1.2,1.3 3.2,2.9 6.1,4.7 2.5,1.6 5.7,3.3 8.2,4.5 0.4,0.2 0.6,0.4 0.6,0.7 0,0.3 -0.2,0.5 -0.7,0.5 h -7.1 c -0.4,0 -0.6,0.2 -0.6,0.5 0,0.2 0.1,0.4 0.3,0.6 1.6,1.5 4.2,3 7.6,4.5 4.6,1.9 9.2,3.1 14.4,3.1 9.9,-0.1 14.2,-7.5 14.2,-13.3 z m -12.9,8.9 c -4.8,0 -8.9,-3.9 -8.9,-8.9 0,-4.8 4,-8.7 8.9,-8.7 5,0 8.9,3.9 8.9,8.7 0,4.9 -3.9,8.9 -8.9,8.9 z"
   id="path18" />
</svg>
