<?xml version="1.0" encoding="UTF-8" standalone="no"?>
<!-- Generator: Adobe Illustrator 26.0.3, SVG Export Plug-In . SVG Version: 6.00 Build 0)  -->

<svg
   version="1.0"
   id="Layer_1"
   x="0px"
   y="0px"
   viewBox="0 0 222 88"
   xml:space="preserve"
   sodipodi:docname="spyfu.svg"
   width="222"
   height="88"
   inkscape:version="1.1.2 (0a00cf5339, 2022-02-04)"
   xmlns:inkscape="http://www.inkscape.org/namespaces/inkscape"
   xmlns:sodipodi="http://sodipodi.sourceforge.net/DTD/sodipodi-0.dtd"
   xmlns="http://www.w3.org/2000/svg"
   xmlns:svg="http://www.w3.org/2000/svg"><defs
   id="defs31" /><sodipodi:namedview
   id="namedview29"
   pagecolor="#ffffff"
   bordercolor="#666666"
   borderopacity="1.0"
   inkscape:pageshadow="2"
   inkscape:pageopacity="0.0"
   inkscape:pagecheckerboard="0"
   showgrid="false"
   inkscape:zoom="2.3342697"
   inkscape:cx="126.16366"
   inkscape:cy="91.677496"
   inkscape:window-width="1920"
   inkscape:window-height="1003"
   inkscape:window-x="0"
   inkscape:window-y="0"
   inkscape:window-maximized="1"
   inkscape:current-layer="Layer_1" />
<style
   type="text/css"
   id="style2">
	.st0{fill:#333333;}
	.st1{fill:#EC1C27;}
	.st2{fill:none;}
</style>
<path
   class="st0"
   d="m 110.7021,32.612641 c 0,-2.42451 -1.61634,-3.579039 -4.84903,-3.579039 -3.23267,0 -4.84902,1.154529 -4.84902,3.579039 v 0.80817 c 0,1.269982 0.80817,2.309058 2.07816,2.655417 l 8.65896,3.117228 c 3.46359,1.269982 5.8881,3.463587 5.8881,7.158079 v 3.809945 c 0,4.156304 -2.88632,8.197155 -11.89165,8.197155 -9.005326,0 -11.891648,-3.925398 -11.891648,-8.197155 v -3.117228 c 0,-0.923623 0.346358,-1.269982 1.154529,-1.269982 h 4.156303 c 0.923626,0 1.154526,0.346359 1.154526,1.269982 v 2.309058 c 0,2.424511 1.84725,3.57904 5.31084,3.57904 3.46359,0 5.31083,-1.154529 5.31083,-3.57904 v -1.61634 c 0,-2.078152 -1.9627,-2.886323 -4.27176,-3.694493 L 99.041352,41.040702 C 96.385935,40.001626 94.538689,37.461663 94.538689,34.57534 v -2.886322 c 0,-4.156304 2.539963,-8.197155 11.314381,-8.197155 8.77442,0 11.54529,3.925398 11.54529,8.197155 v 2.078152 c 0,0.80817 -0.34636,1.269982 -1.26998,1.269982 h -4.27176 c -0.80817,0 -1.15452,-0.346359 -1.15452,-1.269982 z"
   id="path4"
   style="stroke-width:1.15453" />
<path
   class="st0"
   d="m 188.17098,23.953675 c 0.80817,0 1.26999,0.230905 1.26999,1.154529 v 3.117228 c 0,0.923623 -0.34636,1.269981 -1.26999,1.269981 h -12.69981 v 8.081702 h 11.89164 c 0.92363,0 1.26999,0.230906 1.26999,1.154529 v 3.232681 c 0,0.923623 -0.34636,1.269982 -1.26999,1.269982 h -11.89164 v 13.392535 c 0,0.923623 -0.23091,1.385435 -1.15453,1.385435 h -4.38721 c -0.92363,0 -1.15453,-0.346359 -1.15453,-1.385435 V 25.223656 c 0,-0.923623 0.2309,-1.385434 1.15453,-1.385434 h 18.24155 z"
   id="path6"
   style="stroke-width:1.15453" />
<path
   class="st0"
   d="m 202.02533,52.470538 c 0,0 -0.80817,0.115453 -1.03908,0.115453 -2.07815,0 -2.65541,-0.80817 -2.65541,-2.655417 V 34.228982 c 0,-0.923623 -0.34636,-1.269982 -1.26998,-1.269982 H 193.02 c -0.80817,0 -1.26998,0.346359 -1.26998,1.269982 v 17.317933 c 0,3.925398 2.65542,6.696267 7.15808,6.696267 1.03908,0 1.9627,-0.115452 3.00178,-0.346358 0.11545,0 0.11545,-0.115453 0.2309,-0.115453 0.11546,0 0.23091,-5.426286 -0.11545,-5.310833 z"
   id="path8"
   style="stroke-width:1.15453" />
<path
   class="st0"
   d="m 211.72337,33.074453 h -4.1563 c -0.92362,0 -1.26998,0.346358 -1.26998,1.269982 v 16.163404 l 0.2309,6.234456 c 0.11546,0.923623 0.34636,1.269982 1.26998,1.269982 h 3.80995 c 0.80817,0 1.15453,-0.346359 1.15453,-1.269982 V 34.228982 c 0.2309,-0.923623 -0.23091,-1.154529 -1.03908,-1.154529 z"
   id="path10"
   style="stroke-width:1.15453" />
<path
   class="st0"
   d="m 164.96495,33.074453 h -3.80994 c -0.80817,0 -1.15453,0.461811 -1.26998,1.269982 l -7.8508,24.245106 v 0 l -2.42451,8.197155 c -0.23091,0.80817 0.2309,1.269982 1.26998,1.269982 h 3.00178 c 0.92362,0 1.26998,-0.577265 1.38543,-1.269982 l 11.08348,-32.442261 c 0.11545,-0.923624 -0.46181,-1.269982 -1.38544,-1.269982 z"
   id="path12"
   style="stroke-width:1.15453" />
<path
   class="st0"
   d="m 131.59907,52.355085 c -0.80817,-0.230906 -1.15453,0.230906 -1.15453,1.154529 v 2.886322 c 0,0.923623 0.57726,1.154529 1.15453,1.385435 z"
   id="path14"
   style="stroke-width:1.15453" />
<path
   class="st0"
   d="m 201.90988,52.470538 c 0.80817,-0.230906 1.15453,0.230906 1.15453,1.154529 v 2.886322 c 0,0.923623 -0.57727,1.154529 -1.15453,1.269982 z"
   id="path16"
   style="stroke-width:1.15453" />
<path
   class="st0"
   d="M 152.95785,42.54159 C 152.8424,42.079778 150.30244,34.228982 150.30244,34.228982 150.07153,33.420811 149.84062,32.959 148.917,32.959 h -4.1563 c -0.80817,0 -1.38544,0.461811 -1.15453,1.269982 l 6.23445,18.01065 c 0,0 0.46182,0.577265 0.69272,0 0.69272,-2.309058 2.30906,-7.388985 2.42451,-8.081702 0.23091,-0.461811 0.23091,-1.039076 0,-1.61634 z"
   id="path18"
   style="stroke-width:1.15453" />
<path
   class="st0"
   d="m 135.06266,32.612641 c -2.88633,0 -5.77265,1.039076 -7.96625,2.886322 l -0.11546,-1.154528 c 0,-0.923624 -0.2309,-1.269982 -1.15453,-1.269982 h -3.80994 c -0.92362,0 -1.26998,0.346358 -1.26998,1.269982 v 32.442261 c 0,0.923623 0.34636,1.269982 1.26998,1.269982 h 4.1563 c 0.80817,0 1.15453,-0.346359 1.15453,-1.269982 V 40.578891 c 1.61634,-1.385435 3.69449,-2.193605 5.77265,-2.309058 2.30905,0 2.65541,1.269982 2.65541,2.539963 v 9.005326 c 0,1.385434 -0.34636,2.655416 -2.65541,2.655416 -0.57727,0 -1.03908,0 -1.50089,-0.115453 -0.34636,0 -0.34636,5.310833 0,5.310833 1.15453,0.346359 2.42451,0.461812 3.57904,0.461812 4.96447,0 7.15808,-2.886323 7.15808,-7.273532 V 39.886173 c 0,-4.38721 -2.30906,-7.273532 -7.27353,-7.273532 z"
   id="path20"
   style="stroke-width:1.15453" />
<path
   class="st0"
   d="M 55.977424,10.330234 C 53.322008,9.637517 50.666592,9.175705 47.895722,9.060252 l 0.346359,3.117228 c 2.309058,0.115453 4.618115,0.577265 6.927173,1.154529 16.971575,4.733568 27.015976,22.051502 22.628766,39.138529 v 0 C 75.950774,59.166805 72.025376,65.054903 66.483637,69.32666 l -6.00355,-7.273532 c -0.115453,-0.115453 -0.115453,-0.230906 -0.115453,-0.461812 l 2.424511,-7.61989 -13.046177,2.42451 c -0.115452,0 -0.230905,0 -0.346358,-0.115453 -0.115453,-0.115453 -0.115453,-0.230905 -0.230906,-0.346358 V 53.74052 c 0,-0.115453 0,-0.230906 0.115453,-0.346359 L 59.902823,45.543365 C 59.556464,43.811571 56.901047,33.882623 53.78382,29.841772 c 0,-0.115453 0,-0.230906 0,-0.346359 0.115452,-0.115453 0.230905,-0.230905 0.346358,-0.230905 L 70.062677,28.340884 48.126628,17.719219 C 48.011175,17.603766 47.895722,17.488313 47.895722,17.37286 l -1.039076,-10.506213 -25.399635,7.158079 1.731793,7.388985 c 0,0.115453 0,0.346359 -0.115453,0.461812 l -8.312608,6.00355 -0.230905,1.154529 11.083477,1.039076 c 0.230906,0 0.346359,0.115453 0.346359,0.346358 l 5.888097,24.129654 v 0.230906 l 0.230906,0.577264 -0.461812,-0.230906 H 31.385959 L 17.762518,50.046027 18.917047,60.205881 C 14.876196,53.278708 13.606214,45.197006 15.222555,37.34621 l 0.346359,-1.385435 c 0.577264,-1.962699 1.269981,-3.809945 2.193604,-5.657191 l -3.348133,-0.346359 c -0.692718,1.500887 -1.269982,3.001775 -1.616341,4.502662 l -0.115453,0.115453 c -0.230906,0.692718 -0.346358,1.385435 -0.577264,2.193605 -4.271757,19.049727 7.735343,37.984 26.78507,42.37121 19.049726,4.38721 37.984,-7.735343 42.37121,-26.78507 C 85.302458,33.76717 74.218981,15.294708 55.977424,10.330234 Z M 38.428585,52.239632 57.824671,46.466988 46.972099,52.93235 Z"
   id="path22"
   style="stroke-width:1.15453" />
<path
   class="st1"
   d="M 55.515613,74.868398 48.126628,60.321334 39.698567,59.397711 52.052026,75.561116 c 1.154529,-0.115453 2.309058,-0.346359 3.463587,-0.692718 z"
   id="path24"
   style="stroke-width:1.15453" />
<rect
   x="0.67549145"
   y="-0.52233648"
   class="st2"
   width="222.82407"
   height="87.744194"
   id="rect26"
   style="stroke-width:1.15453" />
</svg>
