<svg width="100%" height="100%" style="" viewBox="0 0 152 32" fill="none" xmlns="http://www.w3.org/2000/svg">
<g clip-path="url(#LogoSurfer_clip0-985-1247)">
<path d="M20.4852 23.3747H23.3531C23.7628 23.3747 24.0086 23.0469 24.0086 22.7191V9.3628C24.0086 8.9531 23.6809 8.70728 23.3531 8.70728H20.4852C20.0755 8.70728 19.8296 9.03504 19.8296 9.3628V22.7191C19.8296 23.0469 20.1574 23.3747 20.4852 23.3747ZM4.91644 7.39622V15.1806V16.8194V17.6388H6.55526L4.91644 20.0151L3.27763 22.3914L1.63881 20.0151L0 17.6388H1.72075V16.8194V15.1806V7.39622C1.72075 3.38113 4.99838 0.0215607 9.09542 0.0215607H26.3849C30.4 0.0215607 33.7596 3.29919 33.7596 7.39622H30.5639C30.5639 5.10188 28.6792 3.29919 26.4668 3.29919H9.01348C6.80108 3.21725 4.91644 5.10188 4.91644 7.39622ZM32.0388 9.60862L33.6776 11.9849L35.3164 14.3612H33.6776V15.1806V15.9181V24.6038C33.6776 28.6189 30.4 31.9784 26.303 31.9784H9.01348C4.99838 31.9784 1.63881 28.7008 1.63881 24.6038H4.91644C4.91644 26.8981 6.80108 28.7008 9.01348 28.7008H26.303C28.5973 28.7008 30.4 26.8162 30.4 24.6038V16V15.2625V14.4431H28.7612L30.4 12.0668L32.0388 9.60862ZM11.9633 23.3747H14.8313C15.241 23.3747 15.4868 23.0469 15.4868 22.7191V14.1973C15.4868 13.7876 15.159 13.5418 14.8313 13.5418H11.9633C11.5536 13.5418 11.3078 13.8695 11.3078 14.1973V22.6372C11.3078 23.0469 11.6356 23.3747 11.9633 23.3747Z" fill="url(#LogoSurfer_paint0-linear-985-1247)"></path>
<path d="M45.9688 21.6129C45.9688 21.3671 46.0507 21.0394 46.2965 20.7935C46.4604 20.5477 46.7062 20.3838 46.8701 20.22C47.1159 20.138 47.1979 20.0561 47.1979 20.138C47.6895 20.8755 48.427 21.531 49.3283 22.0226C50.2297 22.5143 51.2949 22.7601 52.3601 22.7601C53.5892 22.7601 54.4906 22.5143 55.1461 22.0226C55.8016 21.531 56.1294 20.8755 56.1294 19.9741C56.1294 19.5644 56.0475 19.2367 55.8836 18.9908C55.7197 18.6631 55.5558 18.4173 55.31 18.2534C55.0642 18.0895 54.7364 17.9256 54.3267 17.7617C53.8351 17.5978 53.5073 17.434 53.1795 17.434C52.9337 17.352 52.4421 17.2701 51.7865 17.1062C50.9671 16.9423 50.3116 16.7784 49.738 16.5326C49.1644 16.2868 48.5909 16.041 48.0173 15.6313C47.4437 15.2216 47.034 14.8119 46.7062 14.1563C46.3785 13.5828 46.2965 12.8453 46.2965 11.9439C46.2965 10.469 46.8701 9.2399 48.0173 8.33855C49.1644 7.4372 50.7213 6.94556 52.524 6.94556C54.3267 6.94556 55.8016 7.27332 56.8669 7.92885C57.9321 8.58437 58.5057 9.2399 58.5057 9.97736C58.5057 10.3051 58.4237 10.5509 58.1779 10.7968C57.9321 11.0426 57.7682 11.2065 57.5224 11.3704C57.2766 11.4523 57.1946 11.5342 57.1946 11.5342C56.703 10.8787 56.0475 10.3051 55.2281 9.81348C54.4086 9.40378 53.5073 9.15796 52.524 9.15796C51.4588 9.15796 50.5574 9.40378 49.9019 9.89542C49.2464 10.3871 48.9186 11.0426 48.9186 11.862C48.9186 12.2717 49.0006 12.6814 49.1644 12.9272C49.3283 13.255 49.5741 13.5008 49.9838 13.6647C50.3935 13.8286 50.8033 13.9925 51.131 14.0744C51.4588 14.1563 52.0324 14.3202 52.6879 14.4841C52.8518 14.4841 52.9337 14.566 53.0156 14.566C53.8351 14.7299 54.5725 14.9757 55.2281 15.2216C55.8016 15.4674 56.4572 15.7952 57.0307 16.1229C57.6043 16.5326 58.096 17.0243 58.4237 17.5978C58.7515 18.1714 58.9154 18.9089 58.9154 19.7283C58.9154 21.2852 58.3418 22.5962 57.1946 23.4976C56.0475 24.3989 54.4086 24.8906 52.3601 24.8906C50.3936 24.8906 48.8367 24.4809 47.6895 23.7434C46.6243 23.1698 45.9688 22.4323 45.9688 21.6129ZM64.4054 17.5978V8.50243C64.4054 7.68302 64.8151 7.27332 65.5526 7.27332H65.9623C66.7817 7.27332 67.1914 7.68302 67.1914 8.50243V17.5978C67.1914 20.9574 68.6663 22.5962 71.5343 22.5962C74.4022 22.5962 75.8771 20.8755 75.8771 17.5159V8.50243C75.8771 7.68302 76.2868 7.27332 77.0243 7.27332H77.434C78.1714 7.27332 78.5812 7.68302 78.5812 8.50243V17.5978C78.5812 19.9741 78.0076 21.8588 76.7785 23.1698C75.5493 24.4809 73.8286 25.0545 71.4523 25.0545C69.158 25.0545 67.3553 24.3989 66.2081 23.1698C64.979 21.8588 64.4054 20.0561 64.4054 17.5978ZM84.8086 23.4156V8.91213C84.8086 8.42049 84.9725 8.09273 85.2183 7.76496C85.4642 7.4372 85.8739 7.35526 86.2836 7.35526H91.2C93.3305 7.35526 94.9693 7.76496 96.0345 8.66631C97.0997 9.56766 97.6733 10.7968 97.6733 12.5175C97.6733 13.9925 97.2636 15.2216 96.3623 16.1229C95.4609 17.0243 94.2318 17.5159 92.5111 17.6798L97.5914 23.6615C97.6733 23.7434 97.5914 23.8253 97.5095 23.9892C97.4275 24.1531 97.1817 24.317 96.9359 24.4809C96.69 24.6447 96.3623 24.7267 95.9526 24.7267C95.2971 24.7267 94.7235 24.3989 94.1499 23.6615L89.3973 17.8437H87.5127V23.4156C87.5127 24.235 87.103 24.6447 86.3655 24.6447H85.9558C85.1364 24.8086 84.8086 24.317 84.8086 23.4156ZM87.4307 15.7132H91.1181C92.3472 15.7132 93.3305 15.4674 93.9041 14.8938C94.5596 14.3202 94.8054 13.5828 94.8054 12.5995C94.8054 10.5509 93.4944 9.48572 90.9542 9.48572H87.3488L87.4307 15.7132ZM103.327 23.3337V8.91213C103.327 8.42049 103.491 8.09273 103.737 7.76496C103.983 7.4372 104.392 7.35526 104.802 7.35526H114.225C115.045 7.35526 115.536 7.76496 115.536 8.50243V8.66631C115.536 9.40378 115.127 9.81348 114.225 9.81348H106.031V15.3854H112.095C112.914 15.3854 113.406 15.7132 113.406 16.4507V16.5326C113.406 17.2701 112.996 17.6798 112.095 17.6798H106.113V23.5795C106.113 24.3989 105.704 24.8086 104.884 24.8086H104.474C103.737 24.8086 103.327 24.317 103.327 23.3337ZM120.617 23.1698V8.91213C120.617 8.42049 120.781 8.09273 121.026 7.76496C121.272 7.4372 121.682 7.35526 122.092 7.35526H132.17C132.99 7.35526 133.481 7.76496 133.481 8.50243V8.66631C133.481 9.40378 133.072 9.81348 132.17 9.81348H123.321V14.7299H130.122C130.941 14.7299 131.433 15.0577 131.433 15.7952V15.8771C131.433 16.6146 131.023 17.0243 130.122 17.0243H123.321V22.2685H132.334C133.154 22.2685 133.563 22.5962 133.563 23.4156V23.5795C133.563 24.3989 133.154 24.8086 132.334 24.8086H122.092C121.682 24.8086 121.272 24.6447 121.026 24.3989C120.781 23.9892 120.617 23.6615 120.617 23.1698ZM139.135 23.4156V8.91213C139.135 8.42049 139.299 8.09273 139.545 7.76496C139.791 7.4372 140.201 7.35526 140.61 7.35526H145.527C147.657 7.35526 149.296 7.76496 150.361 8.66631C151.426 9.56766 152 10.7968 152 12.5175C152 13.9925 151.59 15.2216 150.689 16.1229C149.788 17.0243 148.559 17.5159 146.838 17.6798L151.918 23.6615C152 23.7434 151.918 23.8253 151.836 23.9892C151.754 24.1531 151.508 24.317 151.263 24.4809C151.017 24.6447 150.689 24.7267 150.279 24.7267C149.624 24.7267 149.05 24.3989 148.477 23.6615L143.724 17.8437H141.839V23.4156C141.839 24.235 141.43 24.6447 140.692 24.6447H140.282C139.545 24.8086 139.135 24.317 139.135 23.4156ZM141.839 15.7132H145.527C146.756 15.7132 147.739 15.4674 148.313 14.8938C148.968 14.3202 149.214 13.5828 149.214 12.5995C149.214 10.5509 147.903 9.48572 145.363 9.48572H141.757L141.839 15.7132Z" fill="currentColor"></path>
</g>
<defs>
<linearGradient id="LogoSurfer_paint0-linear-985-1247" x1="2.22327e-07" y1="31.9784" x2="40.1839" y2="23.7278" gradientUnits="userSpaceOnUse">
<stop stop-color="var(--brand--pink)"></stop>
<stop offset="1" stop-color="var(--brand--yellow)"></stop>
</linearGradient>
<clipPath id="LogoSurfer_clip0-985-1247">
<rect width="152" height="31.9569" fill="currentColor" transform="translate(0 0.0215607)"></rect>
</clipPath>
</defs>
</svg>